<svg xmlns="http://www.w3.org/2000/svg" width="660" height="400" viewBox="0 0 660 400">
  <defs>
    <linearGradient id="bg" x1="0" y1="0" x2="660" y2="400" gradientUnits="userSpaceOnUse">
      <stop stop-color="#0B1220"/>
      <stop offset="0.52" stop-color="#111C30"/>
      <stop offset="1" stop-color="#08101C"/>
    </linearGradient>
    <radialGradient id="glow" cx="0" cy="0" r="1" gradientUnits="userSpaceOnUse" gradientTransform="translate(520 30) rotate(137) scale(470 390)">
      <stop stop-color="#318BFF" stop-opacity="0.35"/>
      <stop offset="1" stop-color="#0A1220" stop-opacity="0"/>
    </radialGradient>
    <linearGradient id="arrow" x1="254" y1="208" x2="406" y2="208" gradientUnits="userSpaceOnUse">
      <stop stop-color="#8ED7FF" stop-opacity="0.42"/>
      <stop offset="1" stop-color="#8ED7FF" stop-opacity="0.88"/>
    </linearGradient>
    <filter id="blur"><feGaussianBlur stdDeviation="26"/></filter>
  </defs>

  <rect width="660" height="400" fill="url(#bg)"/>
  <rect width="660" height="400" fill="url(#glow)"/>
  <circle cx="516" cy="88" r="132" fill="#2C87FF" opacity="0.08" filter="url(#blur)"/>
  <circle cx="82" cy="366" r="150" fill="#4EC9FF" opacity="0.05" filter="url(#blur)"/>
  <path d="M0 324C118 278 220 310 328 254C438 197 490 112 660 88V400H0Z" fill="#02070D" opacity="0.24"/>
  <path d="M0 327C119 282 218 313 330 256C444 198 501 118 660 92" fill="none" stroke="#B7E6FF" stroke-opacity="0.08" stroke-width="2"/>

  <text x="330" y="56" text-anchor="middle" fill="#F5F5F7" font-family="-apple-system,BlinkMacSystemFont,Helvetica Neue,sans-serif" font-size="24" font-weight="650">安装 FongMi Desktop</text>
  <text x="330" y="82" text-anchor="middle" fill="#B7BFCC" font-family="-apple-system,BlinkMacSystemFont,Helvetica Neue,sans-serif" font-size="12">将应用拖入 Applications 文件夹</text>

  <path d="M258 208H395" stroke="url(#arrow)" stroke-width="3" stroke-linecap="round"/>
  <path d="M383 194L399 208L383 222" fill="none" stroke="#A8DEFF" stroke-opacity="0.9" stroke-width="3" stroke-linecap="round" stroke-linejoin="round"/>
  <circle cx="330" cy="208" r="29" fill="#72C6FF" opacity="0.05"/>

  <text x="180" y="300" text-anchor="middle" fill="#D4DBE5" font-family="-apple-system,BlinkMacSystemFont,Helvetica Neue,sans-serif" font-size="11">FongMi Desktop</text>
  <text x="480" y="300" text-anchor="middle" fill="#D4DBE5" font-family="-apple-system,BlinkMacSystemFont,Helvetica Neue,sans-serif" font-size="11">Applications</text>
  <text x="330" y="370" text-anchor="middle" fill="#7E8999" font-family="-apple-system,BlinkMacSystemFont,Helvetica Neue,sans-serif" font-size="10">聚合搜索 · 内置播放 · 多源兼容</text>
</svg>
